<svg xmlns="http://www.w3.org/2000/svg" xmlns:xlink="http://www.w3.org/1999/xlink" width="500" zoomAndPan="magnify" viewBox="0 0 375 149.999998" height="200" preserveAspectRatio="xMidYMid meet" version="1.0"><defs><g/><clipPath id="73b02c45a5"><path d="M 155 9.445312 L 204 9.445312 L 204 92.695312 L 155 92.695312 Z M 155 9.445312 " clip-rule="nonzero"/></clipPath><clipPath id="0776e9e9ec"><path d="M 198 9.445312 L 286.042969 9.445312 L 286.042969 92.695312 L 198 92.695312 Z M 198 9.445312 " clip-rule="nonzero"/></clipPath><clipPath id="b4b46abc01"><path d="M 87.292969 9.445312 L 175 9.445312 L 175 92.695312 L 87.292969 92.695312 Z M 87.292969 9.445312 " clip-rule="nonzero"/></clipPath></defs><g fill="#ac1929" fill-opacity="1"><g transform="translate(72.000641, 132.47206)"><g><path d="M 29.523438 -23.890625 C 29.210938 -23.890625 28.929688 -23.703125 28.789062 -23.378906 L 23.796875 -11.835938 L 18.664062 -23.703125 C 18.539062 -24.015625 18.292969 -24.203125 17.933594 -24.203125 C 17.546875 -24.203125 17.328125 -24.015625 17.203125 -23.703125 L 12.320312 -11.851562 L 7.324219 -23.378906 C 7.203125 -23.703125 6.90625 -23.890625 6.59375 -23.890625 L 0.980469 -23.890625 C 0.511719 -23.890625 0.28125 -23.578125 0.511719 -23.128906 L 11.464844 0 C 11.945312 0.980469 12.769531 0.980469 13.191406 0 L 18.058594 -11.664062 L 22.941406 0 C 23.347656 0.980469 24.171875 0.980469 24.652344 0 L 35.617188 -23.128906 C 35.835938 -23.578125 35.554688 -23.890625 35.136719 -23.890625 Z M 29.523438 -23.890625 "/></g></g><g transform="translate(108.117054, 132.47206)"><g><path d="M 17.871094 0 C 18.292969 0 18.507812 -0.21875 18.507812 -0.636719 L 18.507812 -4.773438 C 18.507812 -5.195312 18.292969 -5.414062 17.871094 -5.414062 L 8.726562 -5.414062 L 8.726562 -8.210938 L 16.628906 -8.210938 C 17.046875 -8.210938 17.265625 -8.445312 17.265625 -8.851562 L 17.265625 -12.675781 C 17.265625 -13.097656 17.046875 -13.3125 16.628906 -13.3125 L 8.726562 -13.3125 L 8.726562 -18.476562 L 17.871094 -18.476562 C 18.292969 -18.476562 18.507812 -18.695312 18.507812 -19.117188 L 18.507812 -23.253906 C 18.507812 -23.671875 18.292969 -23.890625 17.871094 -23.890625 L 3 -23.890625 C 2.582031 -23.890625 2.363281 -23.671875 2.363281 -23.253906 L 2.363281 -0.636719 C 2.363281 -0.21875 2.582031 0 3 0 Z M 17.871094 0 "/></g></g><g transform="translate(128.446147, 132.47206)"><g><path d="M 12.457031 0 C 19.519531 0 21.214844 -3.59375 21.214844 -6.71875 C 21.214844 -9.238281 20.035156 -11.277344 16.875 -12.304688 C 18.882812 -13.3125 20.21875 -15.164062 20.21875 -17.808594 C 20.21875 -21.121094 18.324219 -23.890625 12.304688 -23.890625 L 3 -23.890625 C 2.582031 -23.890625 2.363281 -23.671875 2.363281 -23.253906 L 2.363281 -0.636719 C 2.363281 -0.21875 2.582031 0 3 0 Z M 8.726562 -18.476562 L 12.195312 -18.476562 C 14.015625 -18.476562 14.621094 -17.683594 14.621094 -16.566406 C 14.621094 -15.476562 14.015625 -14.621094 12.195312 -14.621094 L 8.726562 -14.621094 Z M 8.726562 -9.84375 L 12.335938 -9.84375 C 14.199219 -9.84375 14.839844 -8.882812 14.839844 -7.605469 C 14.839844 -6.378906 14.199219 -5.414062 12.335938 -5.414062 L 8.726562 -5.414062 Z M 8.726562 -9.84375 "/></g></g><g transform="translate(151.155003, 132.47206)"><g/></g><g transform="translate(161.34288, 132.47206)"><g><path d="M 10.996094 0 C 20.066406 0 24.015625 -4.464844 24.015625 -11.914062 C 24.015625 -19.488281 19.941406 -23.890625 10.996094 -23.890625 L 3 -23.890625 C 2.582031 -23.890625 2.363281 -23.671875 2.363281 -23.253906 L 2.363281 -0.636719 C 2.363281 -0.21875 2.582031 0 3 0 Z M 8.789062 -18.476562 L 11.027344 -18.476562 C 15.507812 -18.476562 17.652344 -16.144531 17.652344 -12.007812 C 17.652344 -7.871094 15.507812 -5.414062 11.027344 -5.414062 L 8.789062 -5.414062 Z M 8.789062 -18.476562 "/></g></g><g transform="translate(186.82035, 132.47206)"><g><path d="M 17.871094 0 C 18.292969 0 18.507812 -0.21875 18.507812 -0.636719 L 18.507812 -4.773438 C 18.507812 -5.195312 18.292969 -5.414062 17.871094 -5.414062 L 8.726562 -5.414062 L 8.726562 -8.210938 L 16.628906 -8.210938 C 17.046875 -8.210938 17.265625 -8.445312 17.265625 -8.851562 L 17.265625 -12.675781 C 17.265625 -13.097656 17.046875 -13.3125 16.628906 -13.3125 L 8.726562 -13.3125 L 8.726562 -18.476562 L 17.871094 -18.476562 C 18.292969 -18.476562 18.507812 -18.695312 18.507812 -19.117188 L 18.507812 -23.253906 C 18.507812 -23.671875 18.292969 -23.890625 17.871094 -23.890625 L 3 -23.890625 C 2.582031 -23.890625 2.363281 -23.671875 2.363281 -23.253906 L 2.363281 -0.636719 C 2.363281 -0.21875 2.582031 0 3 0 Z M 17.871094 0 "/></g></g><g transform="translate(207.149442, 132.47206)"><g><path d="M 9.753906 0.636719 C 14.277344 0.636719 19.117188 -1.121094 19.117188 -6.6875 C 19.117188 -11.121094 16.019531 -13.035156 13.191406 -14.339844 C 10.359375 -15.648438 8.121094 -16.347656 8.121094 -17.777344 C 8.121094 -18.851562 9.175781 -19.210938 10.640625 -19.210938 C 12.070312 -19.210938 13.890625 -18.851562 15.445312 -18.324219 C 15.832031 -18.183594 16.113281 -18.355469 16.238281 -18.726562 L 17.390625 -22.648438 C 17.515625 -23.066406 17.390625 -23.316406 16.984375 -23.441406 C 14.808594 -24.109375 12.257812 -24.527344 10.421875 -24.527344 C 5.957031 -24.527344 1.648438 -22.554688 1.648438 -17.328125 C 1.648438 -13.59375 4.042969 -11.726562 6.8125 -10.296875 C 9.613281 -8.851562 12.613281 -7.996094 12.613281 -6.410156 C 12.613281 -5.195312 11.433594 -4.742188 9.785156 -4.742188 C 8.058594 -4.742188 5.769531 -5.226562 3.734375 -5.894531 C 3.34375 -6.019531 3.0625 -5.925781 2.925781 -5.507812 L 1.554688 -1.335938 C 1.429688 -0.917969 1.585938 -0.667969 2.007812 -0.542969 C 4.898438 0.28125 7.386719 0.636719 9.753906 0.636719 Z M 9.753906 0.636719 "/></g></g><g transform="translate(227.571858, 132.47206)"><g><path d="M 5.539062 -25.289062 C 7 -25.289062 8.027344 -26.347656 8.027344 -27.78125 C 8.027344 -29.210938 7 -30.332031 5.539062 -30.332031 C 4.042969 -30.332031 3.015625 -29.210938 3.015625 -27.78125 C 3.015625 -26.347656 4.042969 -25.289062 5.539062 -25.289062 Z M 8.089844 0 C 8.507812 0 8.726562 -0.21875 8.726562 -0.636719 L 8.726562 -23.253906 C 8.726562 -23.671875 8.507812 -23.890625 8.089844 -23.890625 L 3 -23.890625 C 2.582031 -23.890625 2.363281 -23.671875 2.363281 -23.253906 L 2.363281 -0.636719 C 2.363281 -0.21875 2.582031 0 3 0 Z M 8.089844 0 "/></g></g><g transform="translate(238.661868, 132.47206)"><g><path d="M 14.339844 0.636719 C 18.992188 0.636719 22.738281 -1.089844 24.949219 -4.105469 C 25.105469 -4.292969 25.167969 -4.527344 25.167969 -4.804688 L 25.167969 -12.675781 C 25.167969 -13.097656 24.949219 -13.3125 24.527344 -13.3125 L 15.164062 -13.3125 C 14.746094 -13.3125 14.527344 -13.097656 14.527344 -12.675781 L 14.527344 -8.851562 C 14.527344 -8.445312 14.746094 -8.210938 15.164062 -8.210938 L 19.363281 -8.210938 L 19.363281 -6.90625 C 18.214844 -5.566406 16.472656 -4.773438 14.339844 -4.773438 C 10.390625 -4.773438 7.777344 -7.511719 7.777344 -11.945312 C 7.777344 -16.175781 10.390625 -18.789062 14.339844 -18.789062 C 16.597656 -18.789062 18.414062 -17.933594 19.597656 -16.503906 C 19.847656 -16.175781 20.125 -16.113281 20.453125 -16.347656 L 24.652344 -19.148438 C 25.011719 -19.394531 25.074219 -19.691406 24.808594 -20.003906 C 22.523438 -22.832031 18.851562 -24.527344 14.339844 -24.527344 C 6.5625 -24.527344 1.398438 -19.628906 1.398438 -11.945312 C 1.398438 -4.261719 6.5625 0.636719 14.339844 0.636719 Z M 14.339844 0.636719 "/></g></g><g transform="translate(265.616969, 132.47206)"><g><path d="M 7.902344 0 C 8.320312 0 8.539062 -0.21875 8.539062 -0.636719 L 8.539062 -12.039062 L 21.761719 0 C 22.753906 0.917969 23.472656 0.511719 23.472656 -0.574219 L 23.472656 -23.253906 C 23.472656 -23.671875 23.253906 -23.890625 22.832031 -23.890625 L 17.964844 -23.890625 C 17.546875 -23.890625 17.328125 -23.671875 17.328125 -23.253906 L 17.328125 -12.257812 L 3.949219 -24.046875 C 3.0625 -24.824219 2.394531 -24.433594 2.394531 -23.347656 L 2.394531 -0.636719 C 2.394531 -0.21875 2.613281 0 3.03125 0 Z M 7.902344 0 "/></g></g></g><g fill="#ac1929" fill-opacity="1"><g transform="translate(291.48329, 132.47206)"><g/></g></g><g clip-path="url(#73b02c45a5)"><path fill="#ac1929" d="M 203.445312 43.070312 L 174.71875 92.695312 L 155.21875 59.128906 L 183.984375 9.441406 L 203.445312 43.070312 " fill-opacity="1" fill-rule="nonzero"/></g><g clip-path="url(#0776e9e9ec)"><path fill="#ed1c24" d="M 247.019531 9.441406 L 198.660156 92.695312 L 237.871094 92.695312 L 286.066406 9.441406 L 247.019531 9.441406 " fill-opacity="1" fill-rule="nonzero"/></g><g clip-path="url(#b4b46abc01)"><path fill="#ed1c24" d="M 87.3125 9.441406 L 135.507812 92.695312 L 174.71875 92.695312 L 126.359375 9.441406 L 87.3125 9.441406 " fill-opacity="1" fill-rule="nonzero"/></g></svg>